<svg xmlns="http://www.w3.org/2000/svg" version="1.1" xmlns:xlink="http://www.w3.org/1999/xlink" xmlns:svgjs="http://svgjs.dev/svgjs" width="1000" height="1000" viewBox="0 0 1000 1000"><rect width="1000" height="1000" fill="#ffffff"></rect><g transform="matrix(0.7,0,0,0.7,149.57575757575756,378.95762474407434)"><svg viewBox="0 0 396 137" data-background-color="#ffffff" preserveAspectRatio="xMidYMid meet" height="345" width="1000" xmlns="http://www.w3.org/2000/svg" xmlns:xlink="http://www.w3.org/1999/xlink"><g id="tight-bounds" transform="matrix(1,0,0,1,0.2400000000000091,0.16586091122906055)"><svg viewBox="0 0 395.52 136.6680803908894" height="136.6680803908894" width="395.52"><g><svg viewBox="0 0 661.7048749419354 228.6456691029729" height="136.6680803908894" width="395.52"><g transform="matrix(1,0,0,1,0,82.72448337639347)"><svg viewBox="0 0 395.5199999999999 63.19670235018599" height="63.19670235018599" width="395.5199999999999"><g><svg viewBox="0 0 395.5199999999999 63.19670235018599" height="63.19670235018599" width="395.5199999999999"><g><svg viewBox="0 0 395.5199999999999 36.85849462365591" height="36.85849462365591" width="395.5199999999999"><g transform="matrix(1,0,0,1,0,0)"><svg width="395.5199999999999" viewBox="7.079999923706055 -35.060001373291016 381.4200134277344 35.55000305175781" height="36.85849462365591" data-palette-color="#ee3e38"><path d="M31.18-29.03L13.26-29.03 13.26-20.7 29.71-20.7 29.71-15.04 13.26-15.04 13.26 0 7.08 0 7.08-34.69 31.18-34.69 31.18-29.03ZM65.89 0L41.55 0 41.55-34.69 65.89-34.69 65.89-29.03 47.73-29.03 47.73-20.7 64.55-20.7 64.55-15.04 47.73-15.04 47.73-5.66 65.89-5.66 65.89 0ZM93.38-35.06L93.38-35.06Q98.68-35.06 102.8-32.98 106.93-30.91 109.3-26.94 111.66-22.97 111.66-17.72L111.66-17.72Q111.66-12.4 109.35-8.29 107.03-4.17 102.83-1.9 98.63 0.37 93.18 0.37L93.18 0.37Q89.59 0.37 86.37-0.74 83.15-1.86 80.6-3.99 78.05-6.13 76.55-9.55 75.04-12.96 75.04-17.26L75.04-17.26Q75.04-22.61 77.39-26.67 79.73-30.74 83.88-32.9 88.03-35.06 93.38-35.06ZM96.59-28.99Q94.89-29.42 93.13-29.42 91.38-29.42 89.72-28.99 88.06-28.56 86.53-27.65 85-26.73 83.86-25.39 82.71-24.05 82.03-22.08 81.34-20.12 81.34-17.75L81.34-17.75Q81.34-12.11 84.83-8.69 88.33-5.27 93.55-5.27L93.55-5.27Q95.72-5.27 97.76-5.98 99.8-6.69 101.53-8.08 103.27-9.47 104.32-11.87 105.37-14.26 105.37-17.31L105.37-17.31Q105.37-19.8 104.63-21.86 103.9-23.93 102.69-25.29 101.48-26.66 99.89-27.61 98.29-28.56 96.59-28.99ZM128.19-34.69L128.19-18.8 144.01-34.69 151.9-34.69 135.22-18.09 152.78 0 144.79 0 128.19-16.8 128.19 0 122.04 0 122.04-34.69 128.19-34.69ZM155.63-29.03L155.63-34.69 186.98-34.69 186.98-29.03 174.38-29.03 174.38 0 168.23 0 168.23-29.03 155.63-29.03ZM194.91 0L194.91-34.69 201.06-34.69 201.06 0 194.91 0ZM229.55-35.01L229.55-35.01Q234.41-35.01 239.15-33.57L239.15-33.57 240.15-33.28 238.14-27.61 237.22-27.88Q232.8-29.1 229.16-29.1L229.16-29.1Q225.57-29.1 223.02-27.93 220.47-26.76 220.47-24.93L220.47-24.93Q220.47-23.73 221.6-22.83 222.74-21.92 224.55-21.3 226.35-20.68 228.54-20.07 230.72-19.46 232.92-18.65 235.12-17.85 236.92-16.8 238.73-15.75 239.87-14 241-12.26 241-9.99L241-9.99Q241-8.52 240.5-7.09 240-5.66 238.82-4.27 237.63-2.88 235.89-1.84 234.14-0.81 231.44-0.16 228.74 0.49 225.4 0.49 222.06 0.49 219.37-0.13 216.68-0.76 213.68-1.93L213.68-1.93 212.78-2.27 214.85-8.18 215.81-7.81Q221.98-5.62 225.99-5.62L225.99-5.62Q229.75-5.62 232.08-6.76 234.41-7.91 234.41-9.79L234.41-9.79Q234.41-10.84 233.7-11.67 232.99-12.5 231.8-13.07 230.6-13.65 229.05-14.14 227.5-14.62 225.79-15.09 224.08-15.55 222.37-16.09 220.66-16.63 219.11-17.38 217.56-18.14 216.37-19.09 215.17-20.04 214.46-21.47 213.75-22.9 213.75-24.66L213.75-24.66Q213.75-29.05 218.06-32.03 222.37-35.01 229.55-35.01ZM246.22-29.03L246.22-34.69 277.57-34.69 277.57-29.03 264.97-29.03 264.97 0 258.82 0 258.82-29.03 246.22-29.03ZM301.27-35.06L301.27-35.06Q306.57-35.06 310.7-32.98 314.82-30.91 317.19-26.94 319.56-22.97 319.56-17.72L319.56-17.72Q319.56-12.4 317.24-8.29 314.92-4.17 310.72-1.9 306.52 0.37 301.08 0.37L301.08 0.37Q297.49 0.37 294.27-0.74 291.04-1.86 288.49-3.99 285.94-6.13 284.44-9.55 282.94-12.96 282.94-17.26L282.94-17.26Q282.94-22.61 285.28-26.67 287.63-30.74 291.78-32.9 295.93-35.06 301.27-35.06ZM304.48-28.99Q302.79-29.42 301.03-29.42 299.27-29.42 297.61-28.99 295.95-28.56 294.43-27.65 292.9-26.73 291.75-25.39 290.61-24.05 289.92-22.08 289.24-20.12 289.24-17.75L289.24-17.75Q289.24-12.11 292.73-8.69 296.22-5.27 301.44-5.27L301.44-5.27Q303.62-5.27 305.66-5.98 307.69-6.69 309.43-8.08 311.16-9.47 312.21-11.87 313.26-14.26 313.26-17.31L313.26-17.31Q313.26-19.8 312.53-21.86 311.8-23.93 310.59-25.29 309.38-26.66 307.78-27.61 306.18-28.56 304.48-28.99ZM354.03-29.03L336.11-29.03 336.11-20.7 352.57-20.7 352.57-15.04 336.11-15.04 336.11 0 329.93 0 329.93-34.69 354.03-34.69 354.03-29.03ZM388.5-29.03L370.58-29.03 370.58-20.7 387.04-20.7 387.04-15.04 370.58-15.04 370.58 0 364.4 0 364.4-34.69 388.5-34.69 388.5-29.03Z" opacity="1" transform="matrix(1,0,0,1,0,0)" fill="#000000" class="undefined-text-0" data-fill-palette-color="primary" id="text-0"></path></svg></g></svg></g><g transform="matrix(1,0,0,1,163.31020800000002,45.5599006004301)"><svg viewBox="0 0 232.2097919999999 17.63680174975589" height="17.63680174975589" width="232.2097919999999"><g transform="matrix(1,0,0,1,0,0)"><svg width="232.2097919999999" viewBox="2.75 -40.95000076293945 716.8300170898438 54.45000076293945" height="17.63680174975589" data-palette-color="#8d021f"><path d="M6-7.9L6.9-4Q7.4-3.25 9.03-2.65 10.65-2.05 12.45-2.05L12.45-2.05Q15.3-2.05 16.65-3.15 18-4.25 18-6.2L18-6.2Q18-7.55 17.15-8.55 16.3-9.55 14.78-10.33 13.25-11.1 10.4-12.2L10.4-12.2Q6.55-13.65 4.78-15.68 3-17.7 3-21L3-21Q3-23.2 4.33-24.85 5.65-26.5 7.98-27.43 10.3-28.35 13.15-28.35L13.15-28.35Q15.45-28.35 17.18-28 18.9-27.65 19.95-27.3 21-26.95 21.35-26.85L21.35-26.85 21.35-20.65 18.3-20.65 17.3-24.35Q17-24.95 15.7-25.38 14.4-25.8 12.8-25.8L12.8-25.8Q10.55-25.8 9.18-24.8 7.8-23.8 7.8-22.1L7.8-22.1Q7.8-20.6 8.53-19.63 9.25-18.65 10.35-18.05 11.45-17.45 13.35-16.65L13.35-16.65 14.35-16.25Q17.15-15.15 18.9-14.15 20.65-13.15 21.83-11.53 23-9.9 23-7.55L23-7.55Q23-3.85 20.13-1.65 17.25 0.55 12.25 0.55L12.25 0.55Q9.8 0.55 7.13-0.13 4.45-0.8 2.75-1.5L2.75-1.5 2.75-7.9 6-7.9ZM30.2-2.85L30.2-37.3 26-37.85 26-40 34.15-40.95 34.25-40.95 35.35-40.2 35.35-28.6 35.15-24.35Q36.75-25.8 39.55-27.1 42.35-28.4 45.2-28.4L45.2-28.4Q48.35-28.4 50.1-27.2 51.85-26 52.55-23.53 53.25-21.05 53.25-16.85L53.25-16.85 53.25-2.9 56.75-2.45 56.75 0 44.8 0 44.8-2.45 48.05-2.9 48.05-16.9Q48.05-19.85 47.65-21.53 47.25-23.2 46.15-24.03 45.05-24.85 42.85-24.85L42.85-24.85Q41.05-24.85 39-23.95 36.95-23.05 35.4-21.85L35.4-21.85 35.4-2.9 38.85-2.45 38.85 0 27.2 0 27.2-2.45 30.2-2.85ZM66.35-32.75Q64.75-32.75 63.95-33.65 63.15-34.55 63.15-35.95L63.15-35.95Q63.15-37.55 64.12-38.6 65.1-39.65 66.8-39.65L66.8-39.65Q68.5-39.65 69.3-38.75 70.1-37.85 70.1-36.45L70.1-36.45Q70.1-34.75 69.12-33.75 68.15-32.75 66.4-32.75L66.4-32.75 66.35-32.75ZM64.35-2.9L64.35-23.9 60.55-24.8 60.55-27.45 68.3-28.4 68.4-28.4 69.55-27.5 69.55-2.85 73.55-2.45 73.55 0 60.3 0 60.3-2.45 64.35-2.9ZM80.84-7.9L81.74-4Q82.24-3.25 83.87-2.65 85.49-2.05 87.29-2.05L87.29-2.05Q90.14-2.05 91.49-3.15 92.84-4.25 92.84-6.2L92.84-6.2Q92.84-7.55 91.99-8.55 91.14-9.55 89.62-10.33 88.09-11.1 85.24-12.2L85.24-12.2Q81.39-13.65 79.62-15.68 77.84-17.7 77.84-21L77.84-21Q77.84-23.2 79.17-24.85 80.49-26.5 82.82-27.43 85.14-28.35 87.99-28.35L87.99-28.35Q90.29-28.35 92.02-28 93.74-27.65 94.79-27.3 95.84-26.95 96.19-26.85L96.19-26.85 96.19-20.65 93.14-20.65 92.14-24.35Q91.84-24.95 90.54-25.38 89.24-25.8 87.64-25.8L87.64-25.8Q85.39-25.8 84.02-24.8 82.64-23.8 82.64-22.1L82.64-22.1Q82.64-20.6 83.37-19.63 84.09-18.65 85.19-18.05 86.29-17.45 88.19-16.65L88.19-16.65 89.19-16.25Q91.99-15.15 93.74-14.15 95.49-13.15 96.67-11.53 97.84-9.9 97.84-7.55L97.84-7.55Q97.84-3.85 94.97-1.65 92.09 0.55 87.09 0.55L87.09 0.55Q84.64 0.55 81.97-0.13 79.29-0.8 77.59-1.5L77.59-1.5 77.59-7.9 80.84-7.9ZM104.99-2.9L104.99-37.3 101.09-37.85 101.09-40 109.04-40.95 109.09-40.95 110.19-40.2 110.19-15.75 110.09-12.8 121.64-24.75 117.89-25.45 117.89-27.75 129.99-27.75 129.99-25.45 126.04-24.75 118.69-17.6 128.19-2.85 131.29-2.45 131.29 0 119.14 0 119.14-2.45 122.29-2.9 115.24-14.5 110.09-9.4 110.19-6.85 110.19-2.9 113.74-2.45 113.74 0 101.84 0 101.84-2.45 104.99-2.9ZM138.24-32.75Q136.64-32.75 135.84-33.65 135.04-34.55 135.04-35.95L135.04-35.95Q135.04-37.55 136.01-38.6 136.99-39.65 138.69-39.65L138.69-39.65Q140.39-39.65 141.19-38.75 141.99-37.85 141.99-36.45L141.99-36.45Q141.99-34.75 141.01-33.75 140.04-32.75 138.29-32.75L138.29-32.75 138.24-32.75ZM136.24-2.9L136.24-23.9 132.44-24.8 132.44-27.45 140.19-28.4 140.29-28.4 141.44-27.5 141.44-2.85 145.44-2.45 145.44 0 132.19 0 132.19-2.45 136.24-2.9ZM187.88-14.85Q187.88-10.6 186.13-7.08 184.38-3.55 181.13-1.5 177.88 0.55 173.53 0.55L173.53 0.55Q172.33 0.55 170.93 0.35 169.53 0.15 168.68-0.15L168.68-0.15 168.83 4.05 168.83 9.1 174.03 9.65 174.03 12.1 160.08 12.1 160.08 9.65 163.68 9.1 163.68-23.9 160.03-24.8 160.03-27.5 167.13-28.4 167.23-28.4 168.28-27.5 168.28-24.55Q169.78-26.2 172.01-27.35 174.23-28.5 176.98-28.5L176.98-28.5Q179.93-28.5 182.41-27.05 184.88-25.6 186.38-22.55 187.88-19.5 187.88-14.85L187.88-14.85ZM174.93-25Q173.03-25 171.38-24.2 169.73-23.4 168.83-22.45L168.83-22.45 168.83-3.6Q169.18-3 170.61-2.53 172.03-2.05 173.73-2.05L173.73-2.05Q177.58-2.05 179.96-5.1 182.33-8.15 182.33-14.3L182.33-14.3Q182.33-19.7 180.26-22.35 178.18-25 174.93-25L174.93-25ZM214.98 0.45Q213.58 0.45 212.91-0.1 212.23-0.65 212.23-1.9L212.23-1.9 212.23-3.6Q210.58-1.95 208.11-0.7 205.63 0.55 203.13 0.55L203.13 0.55Q198.48 0.55 196.53-1.95 194.58-4.45 194.58-10.2L194.58-10.2 194.58-24.7 191.78-25.5 191.78-27.7 198.78-28.35 198.83-28.35 199.78-27.75 199.78-10.6Q199.78-7.7 200.21-6.08 200.63-4.45 201.71-3.68 202.78-2.9 204.83-2.9L204.83-2.9Q206.83-2.9 208.58-3.75 210.33-4.6 211.63-5.75L211.63-5.75 211.63-24.7 208.03-25.5 208.03-27.7 215.63-28.35 215.68-28.35 216.83-27.75 216.83-2.55 219.83-2.55 219.78-0.3Q218.38 0.05 217.36 0.25 216.33 0.45 214.98 0.45L214.98 0.45ZM226.53-2.85L226.53-37.3 222.33-37.85 222.33-40 230.48-40.95 230.58-40.95 231.68-40.2 231.68-28.6 231.48-24.35Q233.08-25.8 235.88-27.1 238.68-28.4 241.53-28.4L241.53-28.4Q244.68-28.4 246.43-27.2 248.18-26 248.88-23.53 249.58-21.05 249.58-16.85L249.58-16.85 249.58-2.9 253.08-2.45 253.08 0 241.13 0 241.13-2.45 244.38-2.9 244.38-16.9Q244.38-19.85 243.98-21.53 243.58-23.2 242.48-24.03 241.38-24.85 239.18-24.85L239.18-24.85Q237.38-24.85 235.33-23.95 233.28-23.05 231.73-21.85L231.73-21.85 231.73-2.9 235.18-2.45 235.18 0 223.53 0 223.53-2.45 226.53-2.85ZM260.43-2.9L260.43-37.3 256.38-37.85 256.38-40 264.43-40.95 264.53-40.95 265.63-40.2 265.63-2.85 269.88-2.45 269.88 0 256.38 0 256.38-2.45 260.43-2.9ZM273.42-13.95Q273.42-18.45 275.27-21.75 277.12-25.05 280.15-26.78 283.17-28.5 286.62-28.5L286.62-28.5Q292.92-28.5 296.1-24.5 299.27-20.5 299.27-14L299.27-14Q299.27-9.45 297.42-6.15 295.57-2.85 292.55-1.15 289.52 0.55 286.07 0.55L286.07 0.55Q279.77 0.55 276.6-3.45 273.42-7.45 273.42-13.95L273.42-13.95ZM286.37-2.3Q289.82-2.3 291.67-5.15 293.52-8 293.52-13.6L293.52-13.6Q293.52-19.15 291.82-22.4 290.12-25.65 286.37-25.65L286.37-25.65Q282.92-25.65 281.05-22.8 279.17-19.95 279.17-14.35L279.17-14.35Q279.17-8.8 280.92-5.55 282.67-2.3 286.37-2.3L286.37-2.3ZM315.77 13.5Q309.37 13.5 306.5 11.48 303.62 9.45 303.62 5.9L303.62 5.9Q303.62 3.7 305 1.85 306.37 0 308.27-0.95L308.27-0.95Q305.97-2.25 305.97-5.15L305.97-5.15Q305.97-6.95 307.02-8.55 308.07-10.15 309.77-11L309.77-11Q307.27-12.1 305.94-14.15 304.62-16.2 304.62-19L304.62-19Q304.62-21.9 306.25-24.05 307.87-26.2 310.55-27.35 313.22-28.5 316.22-28.5L316.22-28.5Q321.27-28.5 324.12-26.4L324.12-26.4Q324.87-27.15 326.42-27.85 327.97-28.55 329.72-28.55L329.72-28.55 331.42-28.55 331.42-24.15 325.92-24.15Q327.12-22.3 327.12-19.85L327.12-19.85Q327.12-16.9 325.64-14.63 324.17-12.35 321.55-11.1 318.92-9.85 315.62-9.85L315.62-9.85Q313.47-9.85 311.77-10.3L311.77-10.3Q311.07-9.6 310.62-8.75 310.17-7.9 310.17-7.1L310.17-7.1Q310.17-5.3 311.37-4.63 312.57-3.95 315.67-3.95L315.67-3.95 321.32-3.95Q326.17-3.95 328.52-2.1 330.87-0.25 330.87 3.15L330.87 3.15Q330.87 6 328.82 8.38 326.77 10.75 323.3 12.13 319.82 13.5 315.77 13.5L315.77 13.5ZM316.12-12.6Q321.82-12.6 321.82-19.35L321.82-19.35Q321.82-22.7 320.34-24.28 318.87-25.85 315.92-25.85L315.92-25.85Q313.17-25.85 311.57-24.33 309.97-22.8 309.97-19.45L309.97-19.45Q309.97-16.3 311.5-14.45 313.02-12.6 316.12-12.6L316.12-12.6ZM316.22 10.6Q318.67 10.6 320.84 9.88 323.02 9.15 324.37 7.73 325.72 6.3 325.72 4.4L325.72 4.4Q325.72 2.15 324.52 1.13 323.32 0.1 319.87 0.1L319.87 0.1 313.97 0.1Q311.97 0.1 310.82-0.15L310.82-0.15Q308.77 2.1 308.77 4.9L308.77 4.9Q308.77 7.7 310.47 9.15 312.17 10.6 316.22 10.6L316.22 10.6ZM356.92 0.45Q355.52 0.45 354.84-0.1 354.17-0.65 354.17-1.9L354.17-1.9 354.17-3.6Q352.52-1.95 350.04-0.7 347.57 0.55 345.07 0.55L345.07 0.55Q340.42 0.55 338.47-1.95 336.52-4.45 336.52-10.2L336.52-10.2 336.52-24.7 333.72-25.5 333.72-27.7 340.72-28.35 340.77-28.35 341.72-27.75 341.72-10.6Q341.72-7.7 342.14-6.08 342.57-4.45 343.64-3.68 344.72-2.9 346.77-2.9L346.77-2.9Q348.77-2.9 350.52-3.75 352.27-4.6 353.57-5.75L353.57-5.75 353.57-24.7 349.97-25.5 349.97-27.7 357.57-28.35 357.62-28.35 358.77-27.75 358.77-2.55 361.77-2.55 361.72-0.3Q360.32 0.05 359.29 0.25 358.27 0.45 356.92 0.45L356.92 0.45ZM363.42-37.9L363.42-40 371.42-40.95 371.52-40.95 372.67-40.2 372.67-25.15Q374.17-26.6 376.24-27.55 378.32-28.5 380.87-28.5L380.87-28.5Q383.87-28.5 386.34-27.05 388.82-25.6 390.29-22.55 391.77-19.5 391.77-14.85L391.77-14.85Q391.77-10.55 389.99-7.05 388.22-3.55 384.92-1.5 381.62 0.55 377.27 0.55L377.27 0.55Q373.82 0.55 370.97-0.13 368.12-0.8 367.52-1.35L367.52-1.35 367.52-37.35 363.42-37.9ZM378.82-24.95Q376.92-24.95 375.29-24.08 373.67-23.2 372.67-22.1L372.67-22.1 372.67-3.7Q372.97-3 374.39-2.58 375.82-2.15 377.62-2.15L377.62-2.15Q381.47-2.15 383.82-5.25 386.17-8.35 386.17-14.3L386.17-14.3Q386.17-19.65 384.12-22.3 382.07-24.95 378.82-24.95L378.82-24.95ZM402.01-32.75Q400.41-32.75 399.61-33.65 398.81-34.55 398.81-35.95L398.81-35.95Q398.81-37.55 399.79-38.6 400.76-39.65 402.46-39.65L402.46-39.65Q404.16-39.65 404.96-38.75 405.76-37.85 405.76-36.45L405.76-36.45Q405.76-34.75 404.79-33.75 403.81-32.75 402.06-32.75L402.06-32.75 402.01-32.75ZM400.01-2.9L400.01-23.9 396.21-24.8 396.21-27.45 403.96-28.4 404.06-28.4 405.21-27.5 405.21-2.85 409.21-2.45 409.21 0 395.96 0 395.96-2.45 400.01-2.9ZM425.06 0.55Q419.01 0.55 415.84-3.4 412.66-7.35 412.66-13.95L412.66-13.95Q412.66-18.3 414.31-21.6 415.96-24.9 418.94-26.7 421.91-28.5 425.71-28.5L425.71-28.5Q430.36-28.5 432.94-25.93 435.51-23.35 435.66-18.55L435.66-18.55Q435.66-15.5 435.31-13.9L435.31-13.9 418.11-13.9Q418.21-8.95 420.41-5.93 422.61-2.9 426.66-2.9L426.66-2.9Q428.66-2.9 430.84-3.63 433.01-4.35 434.21-5.35L434.21-5.35 435.16-3.15Q433.71-1.65 430.86-0.55 428.01 0.55 425.06 0.55L425.06 0.55ZM418.16-16.55L430.16-16.55Q430.31-17.6 430.31-18.7L430.31-18.7Q430.26-21.95 428.94-23.83 427.61-25.7 424.76-25.7L424.76-25.7Q421.86-25.7 420.14-23.6 418.41-21.5 418.16-16.55L418.16-16.55ZM449.46-37.9L449.46-40 457.46-40.95 457.56-40.95 458.71-40.2 458.71-25.15Q460.21-26.6 462.28-27.55 464.36-28.5 466.91-28.5L466.91-28.5Q469.91-28.5 472.38-27.05 474.86-25.6 476.33-22.55 477.81-19.5 477.81-14.85L477.81-14.85Q477.81-10.55 476.03-7.05 474.26-3.55 470.96-1.5 467.66 0.55 463.31 0.55L463.31 0.55Q459.86 0.55 457.01-0.13 454.16-0.8 453.56-1.35L453.56-1.35 453.56-37.35 449.46-37.9ZM464.86-24.95Q462.96-24.95 461.33-24.08 459.71-23.2 458.71-22.1L458.71-22.1 458.71-3.7Q459.01-3 460.43-2.58 461.86-2.15 463.66-2.15L463.66-2.15Q467.51-2.15 469.86-5.25 472.21-8.35 472.21-14.3L472.21-14.3Q472.21-19.65 470.16-22.3 468.11-24.95 464.86-24.95L464.86-24.95ZM482.15-7.5Q482.15-12.2 486.85-14.43 491.55-16.65 498.75-16.8L498.75-16.8 498.75-18.2Q498.75-20.55 498.25-21.9 497.75-23.25 496.53-23.88 495.3-24.5 493.05-24.5L493.05-24.5Q490.5-24.5 488.48-23.78 486.45-23.05 484.45-22L484.45-22 483.2-24.6Q483.85-25.15 485.6-26.05 487.35-26.95 489.65-27.65 491.95-28.35 494.25-28.35L494.25-28.35Q497.8-28.35 499.88-27.38 501.95-26.4 502.85-24.25 503.75-22.1 503.75-18.5L503.75-18.5 503.75-2.45 506.7-2.45 506.7-0.25Q505.7 0 504.18 0.25 502.65 0.5 501.5 0.5L501.5 0.5Q500.1 0.5 499.6 0.08 499.1-0.35 499.1-1.8L499.1-1.8 499.1-3.45Q497.6-1.95 495.43-0.7 493.25 0.55 490.5 0.55L490.5 0.55Q486.9 0.55 484.53-1.53 482.15-3.6 482.15-7.5L482.15-7.5ZM492.65-2.85Q493.95-2.85 495.65-3.65 497.35-4.45 498.75-5.55L498.75-5.55 498.75-14.15Q493.3-14.15 490.53-12.48 487.75-10.8 487.75-8.1L487.75-8.1Q487.75-5.4 489.08-4.13 490.4-2.85 492.65-2.85L492.65-2.85ZM507.85-37.9L507.85-40 515.85-40.95 515.95-40.95 517.1-40.2 517.1-25.15Q518.6-26.6 520.68-27.55 522.75-28.5 525.3-28.5L525.3-28.5Q528.3-28.5 530.78-27.05 533.25-25.6 534.73-22.55 536.2-19.5 536.2-14.85L536.2-14.85Q536.2-10.55 534.43-7.05 532.65-3.55 529.35-1.5 526.05 0.55 521.7 0.55L521.7 0.55Q518.25 0.55 515.4-0.13 512.55-0.8 511.95-1.35L511.95-1.35 511.95-37.35 507.85-37.9ZM523.25-24.95Q521.35-24.95 519.73-24.08 518.1-23.2 517.1-22.1L517.1-22.1 517.1-3.7Q517.4-3 518.83-2.58 520.25-2.15 522.05-2.15L522.05-2.15Q525.9-2.15 528.25-5.25 530.6-8.35 530.6-14.3L530.6-14.3Q530.6-19.65 528.55-22.3 526.5-24.95 523.25-24.95L523.25-24.95ZM546.45-32.75Q544.85-32.75 544.05-33.65 543.25-34.55 543.25-35.95L543.25-35.95Q543.25-37.55 544.22-38.6 545.2-39.65 546.9-39.65L546.9-39.65Q548.6-39.65 549.4-38.75 550.2-37.85 550.2-36.45L550.2-36.45Q550.2-34.75 549.22-33.75 548.25-32.75 546.5-32.75L546.5-32.75 546.45-32.75ZM544.45-2.9L544.45-23.9 540.65-24.8 540.65-27.45 548.4-28.4 548.5-28.4 549.65-27.5 549.65-2.85 553.65-2.45 553.65 0 540.4 0 540.4-2.45 544.45-2.9ZM569.04-7.5Q569.04-12.2 573.74-14.43 578.44-16.65 585.64-16.8L585.64-16.8 585.64-18.2Q585.64-20.55 585.14-21.9 584.64-23.25 583.42-23.88 582.19-24.5 579.94-24.5L579.94-24.5Q577.39-24.5 575.37-23.78 573.34-23.05 571.34-22L571.34-22 570.09-24.6Q570.74-25.15 572.49-26.05 574.24-26.95 576.54-27.65 578.84-28.35 581.14-28.35L581.14-28.35Q584.69-28.35 586.77-27.38 588.84-26.4 589.74-24.25 590.64-22.1 590.64-18.5L590.64-18.5 590.64-2.45 593.59-2.45 593.59-0.25Q592.59 0 591.07 0.25 589.54 0.5 588.39 0.5L588.39 0.5Q586.99 0.5 586.49 0.08 585.99-0.35 585.99-1.8L585.99-1.8 585.99-3.45Q584.49-1.95 582.32-0.7 580.14 0.55 577.39 0.55L577.39 0.55Q573.79 0.55 571.42-1.53 569.04-3.6 569.04-7.5L569.04-7.5ZM579.54-2.85Q580.84-2.85 582.54-3.65 584.24-4.45 585.64-5.55L585.64-5.55 585.64-14.15Q580.19-14.15 577.42-12.48 574.64-10.8 574.64-8.1L574.64-8.1Q574.64-5.4 575.97-4.13 577.29-2.85 579.54-2.85L579.54-2.85ZM600.09-2.9L600.09-23.9 596.49-24.8 596.49-27.5 603.64-28.4 603.79-28.4 604.84-27.5 604.84-25.4 604.79-24.2Q606.59-25.8 609.54-27.1 612.49-28.4 615.19-28.4L615.19-28.4Q618.34-28.4 620.06-27.2 621.79-26 622.49-23.53 623.19-21.05 623.19-16.85L623.19-16.85 623.19-2.85 626.69-2.5 626.69 0 614.84 0 614.84-2.45 617.94-2.85 617.94-16.9Q617.94-19.85 617.54-21.53 617.14-23.2 616.04-24.03 614.94-24.85 612.84-24.85L612.84-24.85Q611.04-24.85 608.99-23.95 606.94-23.05 605.34-21.85L605.34-21.85 605.34-2.9 608.74-2.45 608.74 0 596.94 0 596.94-2.45 600.09-2.9ZM636.19-32.75Q634.59-32.75 633.79-33.65 632.99-34.55 632.99-35.95L632.99-35.95Q632.99-37.55 633.96-38.6 634.94-39.65 636.64-39.65L636.64-39.65Q638.34-39.65 639.14-38.75 639.94-37.85 639.94-36.45L639.94-36.45Q639.94-34.75 638.96-33.75 637.99-32.75 636.24-32.75L636.24-32.75 636.19-32.75ZM634.19-2.9L634.19-23.9 630.39-24.8 630.39-27.45 638.14-28.4 638.24-28.4 639.39-27.5 639.39-2.85 643.39-2.45 643.39 0 630.14 0 630.14-2.45 634.19-2.9ZM646.88 0L646.88-2.45 649.93-2.9 649.93-23.9 646.33-24.8 646.33-27.5 653.48-28.4 654.38-27.75 654.68-25.75 654.63-24.15Q656.38-25.75 659.41-27.08 662.43-28.4 664.83-28.4L664.83-28.4Q667.53-28.4 669.18-27.5 670.83-26.6 671.68-24.7L671.68-24.7Q673.28-26.05 676.16-27.23 679.03-28.4 681.53-28.4L681.53-28.4Q684.63-28.4 686.38-27.23 688.13-26.05 688.86-23.58 689.58-21.1 689.58-16.95L689.58-16.95 689.58-2.9 693.18-2.45 693.18 0 681.28 0 681.28-2.45 684.38-2.9 684.38-16.8Q684.38-19.7 683.96-21.43 683.53-23.15 682.36-24 681.18-24.85 678.98-24.85L678.98-24.85Q677.33-24.85 675.48-24.13 673.63-23.4 672.33-22.4L672.33-22.4Q672.78-20.45 672.78-16.85L672.78-16.85 672.78-2.9 676.33-2.45 676.33 0 664.23 0 664.23-2.45 667.53-2.9 667.53-16.9Q667.53-19.9 667.16-21.55 666.78-23.2 665.73-24.03 664.68-24.85 662.53-24.85L662.53-24.85Q660.73-24.85 658.71-23.95 656.68-23.05 655.18-21.85L655.18-21.85 655.18-2.9 658.53-2.45 658.53 0 646.88 0ZM708.98 0.55Q702.93 0.55 699.76-3.4 696.58-7.35 696.58-13.95L696.58-13.95Q696.58-18.3 698.23-21.6 699.88-24.9 702.86-26.7 705.83-28.5 709.63-28.5L709.63-28.5Q714.28-28.5 716.86-25.93 719.43-23.35 719.58-18.55L719.58-18.55Q719.58-15.5 719.23-13.9L719.23-13.9 702.03-13.9Q702.13-8.95 704.33-5.93 706.53-2.9 710.58-2.9L710.58-2.9Q712.58-2.9 714.76-3.63 716.93-4.35 718.13-5.35L718.13-5.35 719.08-3.15Q717.63-1.65 714.78-0.55 711.93 0.55 708.98 0.55L708.98 0.55ZM702.08-16.55L714.08-16.55Q714.23-17.6 714.23-18.7L714.23-18.7Q714.18-21.95 712.86-23.83 711.53-25.7 708.68-25.7L708.68-25.7Q705.78-25.7 704.06-23.6 702.33-21.5 702.08-16.55L702.08-16.55Z" opacity="1" transform="matrix(1,0,0,1,0,0)" fill="#000000" class="undefined-text-1" data-fill-palette-color="secondary" id="text-1"></path></svg></g></svg></g></svg></g></svg></g><g transform="matrix(1,0,0,1,417.2735149419354,0)"><svg viewBox="0 0 244.43135999999996 228.6456691029729" height="228.6456691029729" width="244.43135999999996"><g><svg viewBox="0 0 244.43135999999996 228.6456691029729" height="228.6456691029729" width="244.43135999999996"><g transform="matrix(1,0,0,1,86.53739491351166,60.43053351427058)"><svg viewBox="0 0 71.35657017297663 107.78460207443175" height="107.78460207443175" width="71.35657017297663"><g><svg xmlns="http://www.w3.org/2000/svg" xmlns:xlink="http://www.w3.org/1999/xlink" version="1.1" x="0" y="0" viewBox="24.761856079101562 5 59.5826416015625 90" enable-background="new 0 0 100 100" xml:space="preserve" height="107.78460207443175" width="71.35657017297663" class="icon-s-0" data-fill-palette-color="accent" id="s-0"><g fill="#8d021f" data-fill-palette-color="accent"><path d="M73.76 35.603C86.875 48 91.5 66.25 65.633 82.379c3.64-4.928 5.654-9.794 6.096-14.669 0.951-10.516-5.606-19.072-12.835-26.752C48.298 29.7 47.51 18.84 56.413 6.782 54.578 22.641 64.6 26.944 73.76 35.603zM45.288 93.716c6.184-13.053 7.276-20.302-8.197-34.939-4.204-3.977-7.451-8.029-9.71-12.086-2.881 6.435-5.164 20.081 3.244 27.935C36.312 79.938 44.125 83.125 45.288 93.716zM56.709 43.014C48.183 33.954 41.999 21.253 54 5 21.497 17.692 19.625 38.125 39.151 56.597 55.603 72.158 54.75 80.75 48 95 79.875 71.5 68.709 55.764 56.709 43.014z" fill="#000000" data-fill-palette-color="accent"></path></g><g display="none" fill="#8d021f" data-fill-palette-color="accent"><path display="inline" d="M54 5C16.75 17.5 14.875 56.5 26.75 70.762c10.558 12.68 15.407 7.949 19.675 20.824" fill="#000000" data-fill-palette-color="accent"></path><line display="inline" x1="56.988" y1="5.261" x2="45.528" y2="136.262" fill="#000000" data-fill-palette-color="accent"></line><line display="inline" x1="54.131" y1="3.502" x2="42.67" y2="134.502" fill="#000000" data-fill-palette-color="accent"></line><path display="inline" d="M42.875 76" fill="#000000" data-fill-palette-color="accent"></path></g></svg></g></svg></g><path d="M17.493 71.556L14.542 80.487 18.69 81.858 21.401 73.655 24.227 74.589 21.516 82.792 29.01 85.269 27.992 88.35 10.707 82.637 14.677 70.626ZM44.133 56.075L37.361 66.914 21.923 57.267 28.695 46.429 31.21 48.001 26.157 56.087 29.863 58.403 34.541 50.915 37.065 52.492 32.387 59.98 36.557 62.585 41.609 54.498ZM45.785 28.781V28.781C47.159 27.53 48.622 26.688 50.173 26.253 51.73 25.814 53.284 25.831 54.835 26.303 56.382 26.771 57.772 27.682 59.005 29.036V29.036C60.26 30.415 61.07 31.911 61.436 33.526 61.806 35.136 61.717 36.728 61.169 38.304 60.611 39.88 59.628 41.309 58.219 42.59V42.59C57.292 43.435 56.281 44.094 55.188 44.569 54.09 45.038 52.963 45.298 51.805 45.347 50.638 45.395 49.458 45.154 48.267 44.624 47.07 44.088 45.968 43.266 44.958 42.157V42.157C43.699 40.773 42.893 39.282 42.541 37.682 42.189 36.073 42.296 34.5 42.861 32.962 43.431 31.43 44.406 30.036 45.785 28.781ZM49.173 29.99C48.633 30.284 48.138 30.636 47.686 31.047 47.23 31.463 46.835 31.921 46.501 32.422 46.177 32.923 45.923 33.473 45.74 34.07 45.562 34.663 45.482 35.27 45.5 35.891 45.522 36.507 45.678 37.151 45.965 37.822 46.249 38.488 46.67 39.128 47.228 39.741V39.741C48.559 41.204 50.078 41.966 51.785 42.027 53.492 42.089 55.02 41.505 56.369 40.277V40.277C56.934 39.763 57.398 39.175 57.763 38.511 58.118 37.846 58.356 37.132 58.477 36.367 58.602 35.598 58.516 34.779 58.219 33.91 57.931 33.042 57.427 32.212 56.708 31.422V31.422C56.123 30.779 55.491 30.278 54.813 29.917 54.14 29.561 53.485 29.345 52.85 29.268 52.214 29.2 51.579 29.232 50.943 29.361 50.303 29.496 49.713 29.705 49.173 29.99ZM69.34 13.03L73.05 20.501 76.775 9.338 80.484 7.497 76.512 19.193 88.99 23.598 85.237 25.462 73.515 21.437 77.437 29.335 74.539 30.774 66.443 14.469ZM92.562 7.057L91.974 4.149 108.1 0.887 108.688 3.794 102.21 5.105 105.232 20.041 102.071 20.68 99.049 5.744ZM121.688 18.29L121.166 0.092 124.389 0 124.911 18.197ZM148.642 3.188V3.188C150.31 3.512 151.91 4.08 153.442 4.891V4.891L153.931 5.138 152.328 7.858 151.876 7.629C150.439 6.917 149.099 6.44 147.855 6.198V6.198C146.617 5.958 145.523 5.952 144.573 6.179 143.615 6.412 143.075 6.845 142.952 7.477V7.477C142.873 7.887 142.998 8.283 143.33 8.665 143.66 9.054 144.113 9.416 144.69 9.751 145.274 10.087 145.92 10.433 146.629 10.787 147.337 11.141 148.042 11.531 148.743 11.958 149.446 12.378 150.071 12.828 150.621 13.306 151.169 13.791 151.58 14.371 151.854 15.046 152.129 15.722 152.19 16.45 152.038 17.232V17.232C151.941 17.733 151.76 18.212 151.495 18.667 151.225 19.122 150.841 19.551 150.343 19.954 149.84 20.35 149.254 20.669 148.586 20.911 147.917 21.153 147.098 21.294 146.13 21.336 145.162 21.378 144.102 21.287 142.949 21.063 141.803 20.84 140.788 20.531 139.905 20.137 139.028 19.743 138.114 19.245 137.163 18.641V18.641L136.729 18.374 138.384 15.542 138.846 15.825C140.816 16.992 142.489 17.709 143.863 17.976V17.976C145.159 18.227 146.243 18.232 147.115 17.989 147.992 17.754 148.494 17.314 148.619 16.669V16.669C148.69 16.304 148.632 15.958 148.445 15.631 148.26 15.298 147.981 14.994 147.609 14.718 147.238 14.437 146.801 14.163 146.298 13.896 145.797 13.623 145.269 13.348 144.715 13.071 144.159 12.801 143.605 12.518 143.055 12.221 142.505 11.919 141.988 11.585 141.505 11.221 141.02 10.863 140.605 10.478 140.259 10.066 139.912 9.661 139.665 9.19 139.519 8.655 139.367 8.118 139.349 7.547 139.467 6.941V6.941C139.76 5.43 140.749 4.308 142.433 3.574 144.11 2.838 146.18 2.71 148.642 3.188ZM165.136 11.673L166.433 9.006 181.229 16.202 179.932 18.869 173.988 15.978 167.324 29.682 164.423 28.272 171.088 14.568ZM199.067 29.484V29.484C200.488 30.68 201.517 32.019 202.152 33.5 202.793 34.985 202.982 36.527 202.719 38.127 202.46 39.722 201.741 41.22 200.562 42.621V42.621C199.361 44.048 197.984 45.049 196.433 45.625 194.886 46.205 193.295 46.327 191.661 45.992 190.025 45.647 188.479 44.861 187.022 43.635V43.635C186.063 42.827 185.276 41.913 184.661 40.892 184.05 39.866 183.644 38.782 183.442 37.641 183.24 36.49 183.323 35.289 183.691 34.038 184.064 32.782 184.733 31.58 185.699 30.433V30.433C186.904 29.001 188.276 28.005 189.815 27.445 191.363 26.883 192.937 26.781 194.536 27.139 196.13 27.501 197.641 28.283 199.067 29.484ZM198.316 33.002C197.954 32.506 197.539 32.061 197.072 31.668 196.6 31.271 196.093 30.94 195.553 30.675 195.013 30.42 194.435 30.241 193.818 30.139 193.207 30.041 192.595 30.041 191.982 30.141 191.374 30.245 190.756 30.484 190.129 30.858 189.506 31.227 188.928 31.729 188.393 32.363V32.363C187.12 33.876 186.565 35.482 186.73 37.182 186.895 38.882 187.675 40.32 189.071 41.495V41.495C189.655 41.987 190.3 42.369 191.006 42.643 191.712 42.908 192.451 43.049 193.225 43.067 194.004 43.09 194.805 42.896 195.627 42.487 196.449 42.087 197.205 41.478 197.893 40.661V40.661C198.453 39.996 198.867 39.303 199.134 38.583 199.398 37.868 199.526 37.191 199.518 36.551 199.501 35.912 199.386 35.286 199.173 34.674 198.956 34.057 198.67 33.499 198.316 33.002ZM220.737 59.945L215.351 52.234 211.769 54.737 216.716 61.819 214.276 63.523 209.329 56.441 202.858 60.961 201 58.301 215.924 47.876 223.169 58.246ZM231.355 84.904L227.944 76.138 223.872 77.723 227.005 85.774 224.232 86.854 221.098 78.802 213.743 81.665 212.566 78.641 229.531 72.039 234.119 83.828ZM34.552 157.101L31.564 148.077 27.378 149.463 30.123 157.75 27.269 158.695 24.525 150.408 16.957 152.915 15.927 149.806 33.388 144.023 37.406 156.156ZM33.427 184.909L26.582 173.963 42.178 164.211 49.022 175.156 46.474 176.75 41.365 168.581 37.627 170.919 42.355 178.48 39.807 180.074 35.078 172.513 30.867 175.146 35.975 183.315ZM62.18 187.443V187.443C63.565 188.702 64.549 190.095 65.134 191.622 65.718 193.149 65.849 194.712 65.526 196.31 65.202 197.908 64.415 199.395 63.165 200.77V200.77C61.902 202.159 60.48 203.117 58.898 203.643 57.307 204.169 55.694 204.232 54.059 203.83 52.42 203.424 50.888 202.574 49.464 201.279V201.279C48.526 200.427 47.769 199.469 47.193 198.407 46.612 197.349 46.242 196.237 46.083 195.07 45.925 193.913 46.056 192.709 46.475 191.458 46.9 190.203 47.621 189.015 48.638 187.896V187.896C49.911 186.497 51.336 185.541 52.913 185.03 54.491 184.527 56.079 184.487 57.677 184.909 59.28 185.326 60.781 186.171 62.18 187.443ZM61.27 190.974C60.931 190.459 60.531 189.992 60.069 189.573 59.612 189.157 59.114 188.808 58.575 188.523 58.045 188.238 57.469 188.033 56.847 187.908 56.231 187.787 55.615 187.764 54.998 187.841 54.377 187.922 53.744 188.14 53.099 188.494 52.453 188.84 51.846 189.324 51.279 189.948V189.948C49.94 191.421 49.321 193.019 49.422 194.743 49.522 196.466 50.255 197.949 51.62 199.19V199.19C52.189 199.708 52.826 200.117 53.531 200.417 54.226 200.717 54.968 200.893 55.754 200.945 56.541 200.988 57.355 200.822 58.197 200.449 59.039 200.075 59.824 199.489 60.551 198.688V198.688C61.145 198.035 61.592 197.352 61.891 196.638 62.186 195.928 62.337 195.25 62.344 194.601 62.356 193.957 62.267 193.32 62.077 192.69 61.888 192.06 61.619 191.488 61.27 190.974ZM80.004 199.725L76.259 207.278 87.522 203.452 91.267 205.309 79.431 209.262 83.507 221.992 79.717 220.113 75.791 208.224 71.834 216.205 68.909 214.755 77.079 198.275ZM96.109 209.516L96.704 206.569 112.988 209.853 112.394 212.8 105.847 211.48 102.805 226.564 99.614 225.92 102.656 210.836ZM121.313 228.551L121.846 210.165 125.109 210.26 124.577 228.646ZM144.011 207.166V207.166C145.692 206.841 147.405 206.77 149.15 206.952V206.952L149.696 206.999 149.222 210.152 148.717 210.108C147.104 209.981 145.665 210.04 144.401 210.284V210.284C143.157 210.525 142.131 210.933 141.323 211.508 140.517 212.09 140.174 212.697 140.297 213.329V213.329C140.377 213.746 140.644 214.073 141.095 214.31 141.553 214.546 142.115 214.711 142.782 214.805 143.449 214.899 144.185 214.979 144.989 215.047 145.786 215.116 146.592 215.213 147.407 215.339 148.224 215.472 148.98 215.66 149.676 215.904 150.378 216.146 150.984 216.533 151.492 217.063 152 217.593 152.33 218.253 152.483 219.041V219.041C152.581 219.549 152.594 220.067 152.52 220.595 152.44 221.124 152.241 221.669 151.924 222.231 151.608 222.799 151.182 223.321 150.646 223.796 150.109 224.272 149.394 224.714 148.5 225.124 147.611 225.526 146.584 225.839 145.417 226.065 144.258 226.289 143.191 226.384 142.218 226.35 141.245 226.315 140.198 226.193 139.076 225.984V225.984L138.573 225.899 139.062 222.611 139.588 222.712C141.879 223.06 143.721 223.098 145.116 222.829V222.829C146.419 222.576 147.435 222.174 148.166 221.62 148.897 221.066 149.2 220.463 149.074 219.812V219.812C149.003 219.447 148.819 219.142 148.521 218.895 148.218 218.656 147.839 218.48 147.384 218.365 146.928 218.243 146.417 218.15 145.85 218.084 145.276 218.019 144.677 217.963 144.053 217.914 143.43 217.873 142.804 217.815 142.174 217.741 141.545 217.667 140.938 217.551 140.353 217.394 139.762 217.238 139.226 217.034 138.745 216.782 138.27 216.53 137.861 216.179 137.518 215.732 137.174 215.285 136.944 214.759 136.827 214.153V214.153C136.531 212.622 137.032 211.197 138.331 209.877 139.623 208.553 141.516 207.649 144.011 207.166ZM157.179 206.398L155.867 203.694 170.811 196.44 172.124 199.144 166.116 202.061 172.835 215.904 169.907 217.325 163.188 203.482ZM183.397 186.107V186.107C184.829 184.903 186.341 184.113 187.933 183.738 189.524 183.363 191.091 183.442 192.631 183.976 194.172 184.51 195.54 185.488 196.736 186.911V186.911C197.944 188.348 198.703 189.886 199.013 191.524 199.322 193.171 199.169 194.777 198.552 196.344 197.931 197.915 196.884 199.319 195.41 200.557V200.557C194.44 201.373 193.39 201.995 192.26 202.425 191.135 202.859 189.983 203.077 188.805 203.079 187.637 203.081 186.461 202.791 185.278 202.207 184.09 201.619 183.01 200.746 182.037 199.588V199.588C180.82 198.14 180.063 196.6 179.767 194.969 179.48 193.338 179.652 191.759 180.284 190.231 180.911 188.698 181.949 187.323 183.397 186.107ZM186.775 187.481C186.219 187.748 185.703 188.082 185.225 188.484 184.753 188.881 184.34 189.328 183.986 189.824 183.633 190.312 183.352 190.855 183.145 191.454 182.943 192.049 182.838 192.657 182.831 193.278 182.829 193.904 182.96 194.56 183.226 195.248 183.482 195.934 183.881 196.6 184.423 197.245V197.245C185.704 198.769 187.205 199.596 188.927 199.726 190.648 199.857 192.216 199.329 193.628 198.142V198.142C194.217 197.647 194.707 197.07 195.099 196.412 195.49 195.763 195.763 195.052 195.92 194.279 196.067 193.505 196.012 192.676 195.754 191.792 195.496 190.908 195.02 190.052 194.324 189.224V189.224C193.756 188.548 193.138 188.014 192.471 187.622 191.807 187.234 191.154 186.994 190.513 186.901 189.876 186.803 189.233 186.806 188.583 186.91 187.934 187.014 187.331 187.204 186.775 187.481ZM206.075 163.914L200.624 171.701 204.237 174.23 209.242 167.079 211.705 168.802 206.699 175.954 213.231 180.525 211.353 183.208 196.284 172.661 203.612 162.19ZM214.677 142.734L211.219 151.588 215.326 153.192 218.501 145.061 221.301 146.155 218.126 154.286 225.552 157.186 224.361 160.236 207.227 153.545 211.877 141.641ZM10.312 117.061C10.312 113.181 13.458 110.035 17.339 110.035 21.219 110.035 24.365 113.181 24.365 117.061 24.365 120.942 21.219 124.087 17.339 124.087 13.458 124.087 10.312 120.942 10.312 117.061ZM219.685 117.061C219.685 113.181 222.831 110.035 226.712 110.035 230.592 110.035 233.738 113.181 233.738 117.061 233.738 120.942 230.592 124.087 226.712 124.087 222.831 124.087 219.685 120.942 219.685 117.061Z" fill="#000000" data-fill-palette-color="accent"></path></svg></g></svg></g></svg></g><defs></defs></svg><rect width="395.52" height="136.6680803908894" fill="none" stroke="none" visibility="hidden"></rect></g></svg></g></svg>